<svg xmlns="http://www.w3.org/2000/svg" viewBox="0 0 37.46 26"><defs><style>.cls-1{fill:#2d2927;}</style></defs><title>Ресурс 8</title><g id="Слой_2" data-name="Слой 2"><g id="Слой_7" data-name="Слой 7"><path class="cls-1" d="M37.46,0V26H30.73a4.14,4.14,0,0,1,0-.45q0-12.45,0-24.91c0-.34,0-.61.44-.61Z"/><path class="cls-1" d="M20.48,7c.16,0,.29,0,.43,0H26.7c.33,0,.51,0,.51.45,0,6.08,0,12.15,0,18.22a3,3,0,0,1,0,.39H20.48Z"/><path class="cls-1" d="M10.81,10.35h6.77V26H10.81Z"/><path class="cls-1" d="M6.78,26H0V15.61H6.78Z"/></g></g></svg>