<svg xmlns="http://www.w3.org/2000/svg" viewBox="0 0 26.08 26.07"><defs><style>.cls-1{fill:#2d2927;}</style></defs><title>Ресурс 2</title><g id="Слой_2" data-name="Слой 2"><g id="Слой_7" data-name="Слой 7"><path class="cls-1" d="M10,10.14V7c0-.89,0-1.78,0-2.67a2.91,2.91,0,0,1,1.28-2.53A8.29,8.29,0,0,1,14.8.34a15.23,15.23,0,0,1,8.43.57,4.89,4.89,0,0,1,2.31,1.62,2.63,2.63,0,0,1,.53,1.63c0,3.82,0,7.64,0,11.46a3.22,3.22,0,0,1-1.67,2.94A9.61,9.61,0,0,1,20,19.92c-1.17.09-2.35,0-3.53,0h-.39a13.06,13.06,0,0,0,0,1.4c.17,1.8-.82,2.85-2.3,3.57a10.71,10.71,0,0,1-3.46,1,14.89,14.89,0,0,1-7.73-.86A4.47,4.47,0,0,1,.46,23.42,2.54,2.54,0,0,1,0,22c0-2.54,0-5.08,0-7.62a3,3,0,0,1,1.3-2.56,8.47,8.47,0,0,1,3.5-1.43,15.38,15.38,0,0,1,4.69-.24ZM8,12a11.82,11.82,0,0,0-4.6.84,4.89,4.89,0,0,0-.89.51c-.64.47-.65.84,0,1.31a5.25,5.25,0,0,0,.89.51A10.85,10.85,0,0,0,7.16,16a12.77,12.77,0,0,0,5.13-.66,5.57,5.57,0,0,0,1.21-.63c.71-.48.7-.87,0-1.38A3.81,3.81,0,0,0,13,13,11.46,11.46,0,0,0,8,12ZM18,6a11.4,11.4,0,0,0,4.26-.68,7.4,7.4,0,0,0,1.53-.9c.34-.25.32-.54,0-.84A3.42,3.42,0,0,0,23,3a9.94,9.94,0,0,0-4-1,11.77,11.77,0,0,0-5.69.89,4.8,4.8,0,0,0-1,.7.46.46,0,0,0,0,.76,5.84,5.84,0,0,0,1.16.77A11.21,11.21,0,0,0,18,6Zm-6,.75c-.13,1.54.1,1.91,1.46,2.48l.25.1a13.4,13.4,0,0,0,8.05.15,9.65,9.65,0,0,0,1.83-.89.77.77,0,0,0,.37-.5,9.89,9.89,0,0,0,0-1.34,13,13,0,0,1-6,1.26A13,13,0,0,1,12.06,6.77Zm-10,14C2,22.25,1.82,22.4,3.23,23.14a5,5,0,0,0,.53.23,13.46,13.46,0,0,0,6.3.54A8.15,8.15,0,0,0,13.17,23,1.58,1.58,0,0,0,14,20.81,12.52,12.52,0,0,1,8,22.05,12.55,12.55,0,0,1,2.07,20.79Zm0-3.93A1.54,1.54,0,0,0,2.92,19a4.29,4.29,0,0,0,.78.37,13.69,13.69,0,0,0,7.94.24,4.77,4.77,0,0,0,2-1,1,1,0,0,0,.37-.51,10.61,10.61,0,0,0,0-1.26A15.27,15.27,0,0,1,2.08,16.86Zm12.65-5.14a3.88,3.88,0,0,1,1.3,2,.44.44,0,0,0,.31.19,13.93,13.93,0,0,0,4.73-.21,6.16,6.16,0,0,0,2.53-1.06A1,1,0,0,0,24,12.1a9.39,9.39,0,0,0,0-1.31A15.25,15.25,0,0,1,14.73,11.72Zm1.32,4.21c0,.59,0,1.13,0,1.68,0,.27.11.35.36.35,1.1,0,2.2.06,3.3,0a8.1,8.1,0,0,0,3.58-1,1.58,1.58,0,0,0,.7-2.08A14.51,14.51,0,0,1,16.05,15.93Z"/></g></g></svg>