<svg xmlns="http://www.w3.org/2000/svg" viewBox="0 0 30.74 25.57"><defs><style>.cls-1{fill:#2d2927;}</style></defs><title>Ресурс 7</title><g id="Слой_2" data-name="Слой 2"><g id="Слой_7" data-name="Слой 7"><path class="cls-1" d="M8.45,21.66A22,22,0,0,1,8.53,19a5.34,5.34,0,0,1,5.23-4.42h3.6a5.35,5.35,0,0,1,5.37,5.38c0,1.32,0,2.64,0,4a.44.44,0,0,1-.32.49A14.29,14.29,0,0,1,18,25.48a23.72,23.72,0,0,1-9.13-1.05.44.44,0,0,1-.38-.53C8.47,23.18,8.45,22.45,8.45,21.66Z"/><path class="cls-1" d="M10.74,13.05a6.34,6.34,0,0,0-3.22,2.29A6,6,0,0,0,6.29,19c0,.35,0,.7,0,1s0,.29-.27.27A21,21,0,0,1,3.39,20a25.83,25.83,0,0,1-3.12-.77A.33.33,0,0,1,0,18.86C0,17.42,0,16,0,14.55a5.26,5.26,0,0,1,4.34-5,28,28,0,0,1,3.3-.09H9c.15,0,.26,0,.27.23a5,5,0,0,0,1.44,3.21S10.71,13,10.74,13.05Z"/><path class="cls-1" d="M20.74,12.92c.28-.37.57-.71.81-1.09a5,5,0,0,0,.66-2.05c0-.21.08-.28.3-.28,1.07,0,2.15,0,3.23,0a5,5,0,0,1,3.55,1.55,5,5,0,0,1,1.44,3.59c0,1.22,0,2.44,0,3.67a.61.61,0,0,1-.45.67,15.59,15.59,0,0,1-3.2.85c-.58.09-1.16.12-1.73.18-.24,0-.32,0-.31-.28a9,9,0,0,0-.17-2.42,5.84,5.84,0,0,0-1.52-2.76A6.19,6.19,0,0,0,20.9,13Z"/><path class="cls-1" d="M15.55,13.83A4.49,4.49,0,1,1,20.1,9.49,4.5,4.5,0,0,1,15.55,13.83Z"/><path class="cls-1" d="M7.16,8.18a4.16,4.16,0,0,1-4-3.91A4.18,4.18,0,0,1,6.57.06a4.1,4.1,0,0,1,4.83,4,.46.46,0,0,1-.19.41A5,5,0,0,0,9.52,7.32a.51.51,0,0,1-.29.39A3.84,3.84,0,0,1,7.16,8.18Z"/><path class="cls-1" d="M23.63,8a3.77,3.77,0,0,1-1.33-.2.55.55,0,0,1-.41-.48,4.19,4.19,0,0,0-1.74-2.93.84.84,0,0,1-.36-1,3.92,3.92,0,0,1,7.7,1.52A3.94,3.94,0,0,1,24.16,8,4.69,4.69,0,0,1,23.63,8Z"/></g></g></svg>