<svg xmlns="http://www.w3.org/2000/svg" viewBox="0 0 27.27 43.32"><defs><style>.cls-1{fill:#2d2927;}</style></defs><title>Ресурс 1</title><g id="Слой_2" data-name="Слой 2"><g id="Слой_7" data-name="Слой 7"><path class="cls-1" d="M7.65,43.32V0h9.9A19.57,19.57,0,0,1,22.5.51a5.51,5.51,0,0,1,3,1.86,7.73,7.73,0,0,1,1.44,3.72,42.47,42.47,0,0,1,.36,6.15,42.47,42.47,0,0,1-.36,6.15,7.73,7.73,0,0,1-1.44,3.72,5.51,5.51,0,0,1-3,1.86,19.57,19.57,0,0,1-4.95.51h-3.9V43.32ZM13.65,5v14.4h3.12a11,11,0,0,0,2.4-.21,2.19,2.19,0,0,0,1.38-.93,4.64,4.64,0,0,0,.6-2.16q.12-1.44.12-3.9t-.12-3.9a4.64,4.64,0,0,0-.6-2.16,2.19,2.19,0,0,0-1.38-.93A11,11,0,0,0,16.77,5Z"/><rect class="cls-1" y="29.8" width="21" height="4"/></g></g></svg>