<svg xmlns="http://www.w3.org/2000/svg" viewBox="0 0 135.59 96.09"><defs><style>.cls-1{fill:#ff685f;}</style></defs><title>Ресурс 2</title><g id="Слой_2" data-name="Слой 2"><g id="Слой_7" data-name="Слой 7"><path class="cls-1" d="M38.85,64.49c6.7-1.68,11.37,3.86,10.18,9.09a7,7,0,0,1,7.65.9,6.82,6.82,0,0,1,2.65,7.43A6.44,6.44,0,0,1,66,83.28a5.43,5.43,0,0,1,1.66,6.25c2.06,1.63,4.19,2.4,6.55,1.17,2.21-1.15,2.28-2.74.33-4.2-3.25-2.42-6.48-4.85-9.74-7.25-1.27-.93-2.07-2-1-3.49s2.33-1.06,3.61-.15c5.47,3.87,11,7.71,16.44,11.57,1.54,1.09,3.12,1.5,4.79.35,2.56-1.77,2.59-4.77,0-6.63Q80,74.51,71.15,68.15c-.26-.19-.54-.38-.8-.58-1.17-.89-1.59-2-.72-3.28A2.32,2.32,0,0,1,73,63.74c1.49.87,2.84,2,4.25,3C83.07,70.85,88.89,75,94.75,79.16c2.83,2,6.08.77,6.59-2.4.29-1.79-.58-3-2-4Q88.73,65.19,78.14,57.58c-.86-.61-1.76-1.19-2.56-1.88-1.18-1-1.8-2.32-.76-3.67s2.44-1,3.6-.17c3.07,2.09,6.07,4.29,9.09,6.45C92.75,62.05,98,65.8,103.22,69.53a5.11,5.11,0,0,0,5.78.26c1.93-1.25,2.89-3.05,2.3-5.05a6.47,6.47,0,0,0-1.91-2.88c-11-9.64-22-19.21-33-28.82-1-.87-1.91-1.83-2.85-2.77A8.65,8.65,0,0,0,64,28.93a7,7,0,0,0-3.57,5.2c-1.3,7.22-7.5,12.33-14.49,11.76a8,8,0,0,1-4.46-2.09,3.84,3.84,0,0,1-.66-3.54,25.53,25.53,0,0,0,2.35-10.4,15,15,0,0,1,2.58-8c.32-.49.52-1.05,1-1.92H36.07c1.07-2.11,1.84-3.86,2.85-5.46.27-.43,1.24-.59,1.89-.6,4.72,0,9.43,0,14.14,0a7.27,7.27,0,0,0,3-.76c7.47-3.76,15.19-4.14,23.23-2.13,5.18,1.3,10.49,2.14,15.72,3.28a2.8,2.8,0,0,1,1.73,1.24q8.58,17.73,17,35.53a4.15,4.15,0,0,1,0,2,2.42,2.42,0,0,1-.39.91c-1.43,2.55-2,4.69-.12,7.71,3.41,5.6-.68,12.85-6.52,13.35a22.39,22.39,0,0,0-2.23.44l-.24,1.54c-.84,5.29-3.47,7.67-8.81,7.87-1,0-1.68.09-2.15,1.22-2.93,7-6.81,8.37-13.54,5.06-.29-.14-.6-.25-1.11-.47a7.6,7.6,0,0,1-.4.65c-3.85,5.4-8.24,6.25-13.85,2.6-.93-.6-1.65-1.08-2.47.11a4.14,4.14,0,0,1-5,1.86A6.59,6.59,0,0,1,54,91a15.73,15.73,0,0,1-.23-2c-2.51,2.72-5.33,2.93-8.18,1.21A7,7,0,0,1,42,82.31a7,7,0,0,1-8.25-.49c-2.47-1.88-3.57-4.38-3-7-2.09,0-4.31.53-6.22,0-5.14-1.53-6.62-7.18-3.21-11.3l3.6-4.35c-1.34-1.63-2.5-3.25-3.88-4.66a2.66,2.66,0,0,1-.37-3.84c.51-.76.88-1.62,1.51-2.82,1.53,1.8,3,3.37,4.27,5.07,1.14,1.49,2.1,2.08,4.23,1.38,4.91-1.6,9.85,3.28,8.78,8.37C39.28,63.17,39.07,63.73,38.85,64.49Z"/><path class="cls-1" d="M112.53,0a3.26,3.26,0,0,1,3.2,2.26C120,11.23,124.22,20.13,128.46,29q3.25,6.83,6.5,13.64c1.14,2.41.78,3.73-1.52,4.89-2.54,1.29-5.12,2.52-7.72,3.67-2.31,1-3.63.55-4.7-1.69q-9.73-20.34-19.41-40.73c-.94-2-.55-3.48,1.22-4.39,2.77-1.42,5.6-2.72,8.42-4A6.47,6.47,0,0,1,112.53,0Z"/><path class="cls-1" d="M34.8,6.82c-.41,1-.63,1.65-.91,2.24Q24.28,29.25,14.66,49.44c-1.1,2.3-2.34,2.85-4.64,1.84C7.29,50.09,4.6,48.8,2,47.43-.06,46.4-.47,45,.51,43Q10.25,22.52,20,2.07c1-2,2.3-2.55,4.4-1.62C27.2,1.68,30,3,32.65,4.42,33.57,4.92,34.14,6.05,34.8,6.82Z"/></g></g></svg>