<svg xmlns="http://www.w3.org/2000/svg" viewBox="0 0 96.18 96.18"><defs><style>.cls-1{fill:#ff685f;}</style></defs><title>Ресурс 3</title><g id="Слой_2" data-name="Слой 2"><g id="Слой_7" data-name="Слой 7"><path class="cls-1" d="M96.18,2.85c-.76,3.24-1.43,6.52-2.31,9.72-4,14.55-10.43,27.92-20,39.66-1.19,1.44-2.52,2.77-3.72,4.2a2.45,2.45,0,0,0-.59,1.43c0,11.57-4.15,21.62-11,30.67a78.16,78.16,0,0,1-5.45,6.32c-1.87,2-3.61,1.72-4.95-.62q-4.05-7-8-14.16c-.51-.93-1-1.12-1.87-.52a6.42,6.42,0,0,1-1.07.56c-1.93.9-2.73.78-4.22-.71L16.45,62.89a2.56,2.56,0,0,1-.67-3.42,18,18,0,0,1,.9-1.88c.41-.73.25-1.15-.5-1.56C12.11,53.78,8.05,51.49,4,49.21c-.74-.42-1.47-.84-2.19-1.28-2.17-1.31-2.41-3-.6-4.84A58.34,58.34,0,0,1,19,30.72a45.24,45.24,0,0,1,19.19-4.2,2.48,2.48,0,0,0,1.52-.63C54.63,12,72.5,4.07,92.3.09,94.51-.35,96.07.86,96.18,2.85ZM35.93,74.42c.37-.19.71-.33,1-.52,4.57-2.77,9.23-5.42,13.7-8.34,14.42-9.44,24.81-22.32,31.9-37.94a1.38,1.38,0,0,0-.15-1.21Q76.06,20,69.62,13.69a1.34,1.34,0,0,0-1.21-.19A93.23,93.23,0,0,0,44.58,28.88C35,37.61,28.12,48.29,22,59.53c-.32.59-.09.94.3,1.34q6.5,6.5,13,13A7.93,7.93,0,0,0,35.93,74.42Z"/><path class="cls-1" d="M4.63,94a2.38,2.38,0,0,1-2.31-1.43,1.94,1.94,0,0,1,.4-2.32C6.14,86.83,9.54,83.4,13,80a2,2,0,0,1,2.94,0,2,2,0,0,1,.24,3c-3.42,3.51-6.91,7-10.4,10.42A3.52,3.52,0,0,1,4.63,94Z"/><path class="cls-1" d="M15.63,69.5A8.3,8.3,0,0,1,14.76,71C11.37,74.49,8,77.94,4.54,81.33a2.19,2.19,0,0,1-3.16-.06,2,2,0,0,1,.12-3c3.43-3.5,6.93-6.95,10.4-10.41a1.6,1.6,0,0,1,2.21-.25A10.27,10.27,0,0,1,15.63,69.5Z"/><path class="cls-1" d="M28.63,83.4a3.34,3.34,0,0,1-.56,1c-3.3,3.33-6.6,6.64-10,9.91a2.88,2.88,0,0,1-1.86,1,2.51,2.51,0,0,1-1.77-1.19,4.06,4.06,0,0,1,0-2.16c0-.24.33-.47.53-.68l9.86-9.85a2,2,0,0,1,2.5-.47C28.32,81.37,28.65,82.11,28.63,83.4Z"/><path class="cls-1" d="M64.71,21.1A10.24,10.24,0,1,1,54.48,31.23,10.13,10.13,0,0,1,64.71,21.1ZM69.4,31.28a4.59,4.59,0,0,0-5-4.66,4.73,4.73,0,0,0,.31,9.44A4.68,4.68,0,0,0,69.4,31.28Z"/></g></g></svg>