<svg xmlns="http://www.w3.org/2000/svg" viewBox="0 0 87.49 87.74"><defs><style>.cls-1{fill:#ff685f;}</style></defs><title>Ресурс 1</title><g id="Слой_2" data-name="Слой 2"><g id="Слой_7" data-name="Слой 7"><path class="cls-1" d="M50.46,20.37c-1.2,1.17-2.38,2.37-3.57,3.55a3.16,3.16,0,0,1-1,.84,11,11,0,0,1-.1-2.21q0-10,0-20a2.8,2.8,0,0,0-.4-1.57,2,2,0,0,0-.93-.82,2.28,2.28,0,0,0-2.32.61,3.72,3.72,0,0,0-.53,2.34c0,7.22,0,14.43,0,21.64-.39.13-.5-.21-.68-.38-1.35-1.33-2.68-2.68-4-4a2,2,0,0,0-3-.1,1.91,1.91,0,0,0,0,3c2.76,2.82,5.56,5.62,8.36,8.39a2,2,0,0,0,2.93-.08q4.09-4.09,8.16-8.2a2.07,2.07,0,1,0-2.91-2.92Z"/><path class="cls-1" d="M0,45.4c.84-1.74,1.92-3.34,2.9-5,1.73-2.91,3.49-5.8,5.21-8.72a3.76,3.76,0,0,1,2.16-1.77c4.32-1.49,8.61-3,12.92-4.55,1.47-.52,2.5-.11,3,1.14s-.16,2.23-1.61,2.76l-6.14,2.2c-.49.17-1,.37-1.47.55.08.44.44.39.67.47L42.8,41.42a2.2,2.2,0,0,0,1.6.08Q57.2,36.91,70,32.39c.17,0,.39,0,.48-.37l-5.83-2.09c-.73-.27-1.47-.51-2.19-.8a2.06,2.06,0,1,1,1.39-3.88q7,2.43,14,4.92a2.61,2.61,0,0,1,1.3,1.28q3.87,6.48,7.76,13c.17.28.25.65.6.8v1.57a4.13,4.13,0,0,1-2.31,1.58c-1.65.54-3.26,1.2-4.92,1.71a1.34,1.34,0,0,0-1.11,1.58c0,7.27,0,14.53,0,21.8a2.16,2.16,0,0,1-1.57,2.44L58.13,82.79q-6.93,2.46-13.84,4.95H43.05c-.25-.11-.5-.24-.76-.33L10.15,76c-1.58-.56-2-1.08-1.94-2.74V59.48c0-.63,0-1.25,0-1.87a2.06,2.06,0,0,1,1.84-1.83A2.11,2.11,0,0,1,12.2,57a3.65,3.65,0,0,1,.18,1.47c0,4.29,0,8.58,0,12.87a1.27,1.27,0,0,0,1,1.45Q27,77.58,40.69,82.46c.87.32.94.08.94-.7q0-14.51,0-29v-.93c-.44.2-.51.52-.66.78-1.21,2-2.39,4-3.6,6a2.14,2.14,0,0,1-3.05,1.1L1.64,48.13A2.45,2.45,0,0,1,0,46.72Zm53.25,9.86.38-.14,27.9-9.9c.67-.23.67-.49.33-1q-2.67-4.36-5.27-8.78a.9.9,0,0,0-1.32-.48c-2.5.93-5,1.8-7.54,2.69L47.56,44.79c-.37.14-.91.13-.49.83,1.88,3.07,3.72,6.16,5.58,9.25C52.77,55.07,52.85,55.35,53.25,55.26ZM11.42,34.72c-.29,0-.38.32-.52.55-1.79,3-3.57,6-5.39,8.93-.37.6-.26.81.36,1q14,4.94,27.9,9.91c.5.18.75.13,1-.36q2.69-4.53,5.44-9c.32-.53.29-.74-.34-1Q26,39.88,12,34.89Z"/></g></g></svg>