<svg xmlns="http://www.w3.org/2000/svg" viewBox="0 0 39 25.66"><defs><style>.cls-1{fill:#2d2927;}</style></defs><title>Ресурс 1</title><g id="Слой_2" data-name="Слой 2"><g id="Слой_7" data-name="Слой 7"><path class="cls-1" d="M36.39,1.54c-.43,0-.76,0-1.08,0-.76,0-1.52,0-2.27-.09a.7.7,0,0,1-.69-.79A.62.62,0,0,1,33,0h5.34A.57.57,0,0,1,39,.65Q39,3.32,39,6a.66.66,0,0,1-.71.69A.63.63,0,0,1,37.56,6c-.05-.81-.08-1.62-.12-2.43,0-.18,0-.37,0-.68l-.46.5q-6.37,7.13-12.75,14.22c-1.09,1.21-.86,1-2.14.49-2.33-.95-4.65-1.94-7-2.95A.89.89,0,0,0,14,15.3Q8.25,19.92,2.47,24.5c-.45.35-.91.66-1.37,1a.57.57,0,0,1-.88-.1.75.75,0,0,1-.07-1,1.34,1.34,0,0,1,.35-.32C4.75,20.73,9,17.36,13.24,14a1.88,1.88,0,0,1,2.23-.31c2.26,1,4.58,1.92,6.86,2.89a.69.69,0,0,0,.92-.19Q29.69,9.11,36.14,1.9A2.43,2.43,0,0,0,36.39,1.54Z"/></g></g></svg>