<svg xmlns="http://www.w3.org/2000/svg" viewBox="0 0 13.66 15.39"><defs><style>.cls-1{fill:#2d2927;}</style></defs><title>Ресурс 1</title><g id="Слой_2" data-name="Слой 2"><g id="Слой_7" data-name="Слой 7"><path class="cls-1" d="M2.62,6.81V0H8a8.79,8.79,0,0,1,2.56.28,4.13,4.13,0,0,1,3.1,3.86,4.49,4.49,0,0,1-.77,3.06,4.28,4.28,0,0,1-2.8,1.73,19,19,0,0,1-3.37.14c-.25,0-.29.08-.29.3,0,.46,0,.91,0,1.41h6.11c.25,0,.33.07.33.32,0,.64,0,1.28,0,2H7.91c-.39,0-.78,0-1.18,0-.21,0-.27.07-.27.27,0,.59,0,1.18,0,1.77,0,.09,0,.18,0,.29H2.7V13.08H.07V10.82H.4l2,0c.18,0,.27,0,.26-.27,0-.41,0-.82,0-1.23,0-.18-.07-.22-.24-.22H.25C.05,9.08,0,9,0,8.82Q0,8,0,7.14c0-.24.08-.32.33-.32H2.62Zm3.78,0c.66,0,1.26,0,1.85,0a1.42,1.42,0,0,0,1.07-.55,2.09,2.09,0,0,0,.39-1.67A1.61,1.61,0,0,0,8.11,3c-.48,0-1,0-1.45,0-.21,0-.27.06-.27.27,0,.7,0,1.41,0,2.12Z"/></g></g></svg>