<svg xmlns="http://www.w3.org/2000/svg" viewBox="0 0 16.13 16.14"><defs><style>.cls-1{fill:#262626;}</style></defs><title>Ресурс 2</title><g id="Слой_2" data-name="Слой 2"><g id="Слой_7" data-name="Слой 7"><path class="cls-1" d="M8.06,16.13c-1.12,0-2.24,0-3.35,0A4.7,4.7,0,0,1,.08,12.32,4.91,4.91,0,0,1,0,11.46Q0,8.09,0,4.71A4.7,4.7,0,0,1,3.81.08,4.54,4.54,0,0,1,4.63,0h6.86a4.68,4.68,0,0,1,4.59,4,5.81,5.81,0,0,1,.05.72c0,2.24,0,4.47,0,6.71a4.65,4.65,0,0,1-4,4.63,3.78,3.78,0,0,1-.67.05C10.3,16.14,9.18,16.13,8.06,16.13Zm6.83-8.06h0c0-1.14,0-2.28,0-3.42a3.4,3.4,0,0,0-3.4-3.4c-2.28,0-4.55,0-6.83,0A3.4,3.4,0,0,0,1.25,4.66c0,2.29,0,4.59,0,6.88a3.41,3.41,0,0,0,3.37,3.35h6.9a3.51,3.51,0,0,0,1-.16,3.38,3.38,0,0,0,2.41-3.3C14.9,10.31,14.89,9.19,14.89,8.07Z"/><path class="cls-1" d="M3.73,8.08a4.34,4.34,0,1,1,4.34,4.33A4.34,4.34,0,0,1,3.73,8.08ZM5,8.08A3.1,3.1,0,1,0,8.05,5,3.09,3.09,0,0,0,5,8.08Z"/></g></g></svg>