<svg xmlns="http://www.w3.org/2000/svg" viewBox="0 0 15.62 15.69"><defs><style>.cls-1{fill:#262626;}</style></defs><title>Ресурс 3</title><g id="Слой_2" data-name="Слой 2"><g id="Слой_7" data-name="Слой 7"><path class="cls-1" d="M7.44,0a7.87,7.87,0,0,1,8.07,6.54,7.39,7.39,0,0,1-2.48,7,7.5,7.5,0,0,1-7.9,1.54c-.25-.08-.47-.21-.71-.3a.61.61,0,0,0-.35,0l-3.51.91c-.41.11-.64-.13-.53-.54.3-1.11.6-2.23.91-3.34a.67.67,0,0,0,0-.5,7.48,7.48,0,0,1,.47-7.79A7.41,7.41,0,0,1,7.44,0ZM1.54,14.14l.2-.05,2.56-.67a.9.9,0,0,1,.68.07,6.16,6.16,0,0,0,5.88-.1,6.14,6.14,0,0,0,3.32-5.06,6.13,6.13,0,0,0-1.71-4.91,6.13,6.13,0,0,0-4-2A6.14,6.14,0,0,0,4,2.73,6.21,6.21,0,0,0,1.48,7.25a6.21,6.21,0,0,0,.74,3.58.64.64,0,0,1,.06.57c-.12.41-.22.83-.34,1.24Z"/><path class="cls-1" d="M5.45,4c.48-.09.74.2.91.64a11.29,11.29,0,0,0,.46,1.08A1.06,1.06,0,0,1,6.64,7c-.27.31-.26.32,0,.66a4.5,4.5,0,0,0,2,1.58.17.17,0,0,0,.25-.06c.13-.18.27-.35.41-.53a.68.68,0,0,1,.86-.23c.28.11.56.26.84.39l.65.31A.62.62,0,0,1,12,9.7a2,2,0,0,1-2,2,2.64,2.64,0,0,1-.84-.08A7.18,7.18,0,0,1,5.41,9.38,8.09,8.09,0,0,1,4,7.37,2.58,2.58,0,0,1,4.29,4.5,1.16,1.16,0,0,1,5.45,4Zm-1,2.08c0,.14,0,.29.06.43a4.31,4.31,0,0,0,.85,1.61,7.17,7.17,0,0,0,3.31,2.59,2.76,2.76,0,0,0,1.44.23,1.23,1.23,0,0,0,1.13-1c0-.1,0-.17-.1-.22-.4-.18-.79-.36-1.18-.56-.11-.06-.17,0-.24.07s-.31.41-.48.6a.58.58,0,0,1-.74.17,8.8,8.8,0,0,1-1.1-.57A5.24,5.24,0,0,1,5.71,7.59a.6.6,0,0,1,.1-.79l.29-.35a.36.36,0,0,0,0-.4C6,5.7,5.85,5.35,5.7,5A.43.43,0,0,0,5,4.84,1.63,1.63,0,0,0,4.42,6.09Z"/></g></g></svg>