<svg xmlns="http://www.w3.org/2000/svg" viewBox="0 0 16.75 15.01"><defs><style>.cls-1{fill:#262626;}</style></defs><title>Ресурс 4</title><g id="Слой_2" data-name="Слой 2"><g id="Слой_7" data-name="Слой 7"><path class="cls-1" d="M8.93,12.46c-.59.54-1.17,1.08-1.77,1.59a1.31,1.31,0,0,1-.59.29.87.87,0,0,1-1-.52,7.52,7.52,0,0,1-.39-1q-.5-1.57-1-3.15A.3.3,0,0,0,4,9.41l-2.91-1a1.76,1.76,0,0,1-.82-.55A1.09,1.09,0,0,1,.45,6.29,2.13,2.13,0,0,1,.91,6L14.8.18A2.07,2.07,0,0,1,15.68,0a1.19,1.19,0,0,1,1,1.53l-.78,4L14.68,12c-.13.66-.25,1.32-.39,2A1.47,1.47,0,0,1,13,15a1.67,1.67,0,0,1-1.23-.37c-.92-.73-1.86-1.43-2.8-2.15ZM1.45,7.18l.21.09L5,8.4a.4.4,0,0,0,.38,0q3.71-2.31,7.43-4.6a2.22,2.22,0,0,1,.41-.2.18.18,0,0,1,.17,0,.27.27,0,0,1,0,.2.59.59,0,0,1-.15.17l-.93.87L7.21,9.63A.59.59,0,0,0,7,10c-.09.62-.19,1.23-.29,1.85l-.16,1,2.3-2.09.14.1,3.51,2.69a.8.8,0,0,0,.19.13c.2.1.32,0,.36-.18s.08-.43.13-.65q1.07-5.46,2.14-10.94c0-.19.07-.39.12-.64Z"/></g></g></svg>